<?xml version="1.0" standalone="no"?>
<!DOCTYPE svg PUBLIC "-//W3C//DTD SVG 20010904//EN"
 "http://www.w3.org/TR/2001/REC-SVG-20010904/DTD/svg10.dtd">
<svg version="1.0" xmlns="http://www.w3.org/2000/svg"
 width="1026.000000pt" height="1026.000000pt" viewBox="0 0 1026.000000 1026.000000"
 preserveAspectRatio="xMidYMid meet">
<metadata>
Created by potrace 1.11, written by Peter Selinger 2001-2013
</metadata>
<g transform="translate(0.000000,1026.000000) scale(0.100000,-0.100000)"
fill="#000000" stroke="none">
<path d="M4858 10255 c-2 -1 -46 -6 -98 -9 -52 -4 -113 -9 -135 -11 -94 -11
-360 -47 -365 -50 -3 -1 -25 -6 -50 -9 -77 -10 -99 -15 -305 -66 -235 -58
-474 -135 -688 -221 -142 -57 -448 -202 -562 -266 -143 -81 -183 -105 -330
-201 -131 -86 -435 -307 -455 -331 -3 -3 -34 -31 -70 -61 -149 -125 -400 -372
-509 -500 -35 -41 -67 -77 -71 -80 -3 -3 -43 -51 -88 -107 -503 -624 -856
-1373 -1022 -2163 -10 -52 -21 -106 -24 -120 -2 -14 -7 -41 -10 -60 -26 -153
-26 -153 -41 -280 -24 -215 -29 -318 -29 -585 0 -230 7 -419 19 -510 3 -16 7
-51 10 -77 3 -26 7 -62 9 -80 3 -18 8 -53 11 -78 5 -43 8 -64 20 -120 3 -14 7
-43 11 -65 3 -22 17 -92 31 -155 14 -63 26 -121 28 -130 10 -49 80 -293 114
-396 91 -281 262 -668 402 -909 28 -49 59 -103 69 -120 118 -207 373 -556 565
-771 80 -90 288 -300 385 -389 445 -407 1009 -758 1570 -976 41 -16 84 -34 95
-39 50 -23 357 -119 495 -155 112 -29 365 -83 470 -99 93 -15 171 -25 235 -32
39 -3 84 -8 100 -10 237 -25 768 -24 985 1 19 3 60 7 90 10 30 3 71 7 90 10
19 2 53 7 75 10 23 3 52 7 65 10 14 3 36 7 50 9 14 3 42 8 64 11 21 3 41 7 45
9 3 3 26 7 50 11 84 12 428 104 581 155 457 153 836 339 1238 607 144 96 380
270 412 303 3 3 52 46 110 95 123 105 368 348 460 455 36 41 72 82 80 90 9 8
31 35 50 60 19 25 37 47 40 50 33 30 240 319 328 459 118 186 283 493 351 651
13 30 33 75 43 99 125 282 268 759 322 1076 34 197 42 253 51 350 4 39 9 79
11 89 18 97 25 639 11 836 -13 169 -22 262 -32 320 -3 14 -7 45 -10 70 -3 25
-7 56 -10 70 -3 14 -10 54 -16 90 -6 36 -17 92 -24 125 -8 33 -23 101 -34 150
-128 592 -443 1287 -824 1815 -77 107 -80 111 -130 174 -285 360 -667 730
-999 968 -155 111 -223 158 -229 158 -4 0 -14 6 -21 13 -8 6 -23 17 -33 24
-11 6 -60 36 -110 67 -314 191 -675 357 -1036 477 -119 39 -267 82 -356 103
-181 43 -234 55 -263 60 -19 3 -46 8 -60 11 -69 15 -192 33 -265 40 -33 3 -71
8 -85 10 -25 5 -88 12 -191 21 -59 5 -656 14 -661 9z"/>
</g>
</svg>
